<svg xmlns="http://www.w3.org/2000/svg" viewBox="0 0 128 128" role="img" aria-labelledby="title">
  <title>Fish Shell</title>
  <defs>
    <linearGradient id="g" x1="18" y1="26" x2="110" y2="104" gradientUnits="userSpaceOnUse">
      <stop offset="0" stop-color="#61dafb"/>
      <stop offset="0.55" stop-color="#2d8cff"/>
      <stop offset="1" stop-color="#173b8a"/>
    </linearGradient>
    <linearGradient id="g2" x1="34" y1="40" x2="96" y2="92" gradientUnits="userSpaceOnUse">
      <stop offset="0" stop-color="#ffffff" stop-opacity="0.35"/>
      <stop offset="1" stop-color="#ffffff" stop-opacity="0"/>
    </linearGradient>
  </defs>
  <circle cx="64" cy="64" r="58" fill="#0f172a" stroke="#cbd5e1" stroke-width="4"/>
  <path d="M28 66c8-16 24-26 42-26 12 0 23 4 33 11l15-11-5 18 5 18-15-11c-10 7-21 11-33 11-18 0-34-10-42-26z" fill="url(#g)" stroke="#e2e8f0" stroke-width="4.5" stroke-linejoin="round"/>
  <path d="M40 54l-14-12 4 17-4 17 14-12" fill="none" stroke="#e2e8f0" stroke-width="4.5" stroke-linecap="round" stroke-linejoin="round"/>
  <circle cx="77" cy="59" r="4.8" fill="#f8fafc" stroke="#0f172a" stroke-width="2.5"/>
  <path d="M78 71c-4 3-9 5-15 5s-11-2-15-5" fill="none" stroke="#0f172a" stroke-width="4.2" stroke-linecap="round"/>
  <path d="M31 56c12-10 27-15 43-15 11 0 20 3 29 8" fill="none" stroke="url(#g2)" stroke-width="6" stroke-linecap="round" opacity="0.9"/>
</svg>
